<svg xmlns="http://www.w3.org/2000/svg" viewBox="0 -0.5 48 48" shape-rendering="crispEdges">
<metadata>Made with Pixels to Svg https://codepen.io/shshaw/pen/XbxvNj</metadata>
<path stroke="#000000" d="M9 2h35M9 3h35M9 4h2M42 4h2M9 5h2M42 5h2M9 6h2M23 6h2M36 6h8M9 7h4M22 7h1M31 7h6M38 7h1M41 7h1M9 8h4M22 8h1M29 8h3M35 8h1M38 8h1M41 8h1M9 9h2M20 9h5M27 9h2M35 9h1M38 9h1M41 9h3M9 10h2M20 10h1M22 10h1M24 10h1M27 10h1M35 10h7M20 11h3M24 11h1M26 11h1M28 11h5M35 11h2M38 11h1M41 11h1M6 12h6M20 12h1M24 12h1M26 12h1M28 12h1M32 12h1M35 12h1M38 12h1M41 12h1M5 13h8M20 13h5M26 13h1M28 13h1M30 13h1M32 13h1M35 13h1M38 13h1M41 13h1M4 14h3M10 14h3M16 14h2M22 14h1M26 14h1M28 14h1M30 14h1M32 14h1M35 14h9M11 15h2M14 15h5M22 15h1M26 15h1M28 15h1M30 15h1M32 15h1M35 15h1M38 15h1M41 15h1M7 16h3M12 16h1M14 16h5M20 16h5M26 16h1M28 16h1M32 16h1M35 16h1M38 16h1M41 16h1M6 17h1M9 17h2M17 17h2M20 17h1M22 17h1M24 17h1M26 17h1M28 17h5M35 17h2M38 17h1M41 17h1M5 18h1M10 18h2M13 18h3M17 18h2M20 18h3M24 18h1M27 18h1M35 18h7M5 19h1M7 19h2M11 19h3M15 19h2M20 19h1M24 19h1M27 19h2M35 19h1M38 19h1M40 19h4M5 20h1M7 20h2M11 20h2M17 20h1M20 20h5M29 20h3M35 20h1M38 20h1M41 20h1M5 21h1M7 21h2M11 21h2M17 21h1M22 21h1M31 21h6M38 21h1M41 21h1M5 22h1M11 22h1M14 22h2M18 22h1M22 22h1M36 22h4M41 22h1M3 23h4M10 23h2M14 23h2M18 23h1M23 23h3M39 23h4M3 24h1M6 24h6M14 24h2M18 24h1M3 25h1M10 25h2M17 25h2M3 26h3M11 26h2M16 26h2M3 27h1M5 27h2M12 27h2M15 27h2M28 27h4M3 28h1M6 28h2M12 28h4M27 28h2M31 28h1M39 28h3M3 29h1M7 29h2M14 29h2M26 29h2M31 29h1M39 29h1M41 29h1M3 30h1M9 30h3M15 30h2M26 30h1M28 30h2M31 30h1M36 30h4M41 30h1M3 31h2M7 31h1M11 31h3M16 31h2M25 31h2M28 31h1M30 31h2M36 31h1M41 31h1M3 32h2M7 32h3M14 32h6M21 32h5M27 32h2M30 32h1M36 32h1M41 32h1M3 33h3M9 33h2M18 33h3M26 33h2M29 33h2M36 33h4M41 33h1M3 34h1M5 34h2M10 34h3M24 34h3M29 34h1M39 34h1M41 34h1M3 35h1M6 35h3M12 35h4M21 35h4M27 35h3M39 35h1M41 35h1M3 36h1M8 36h3M15 36h7M26 36h2M39 36h1M41 36h1M3 37h1M10 37h2M24 37h3M39 37h1M41 37h1M3 38h1M12 38h3M20 38h5M39 38h1M41 38h1M3 39h1M15 39h8M39 39h1M41 39h1M3 40h1M22 40h1M39 40h1M41 40h1M3 41h1M22 41h18M41 41h1M3 42h1M23 42h1M41 42h1M3 43h1M23 43h19M3 44h22" />
<path stroke="#ffffff" d="M32 8h3M29 9h6M21 10h1M28 10h7M27 11h1M33 11h2M27 12h1M33 12h2M27 13h1M33 13h2M27 14h1M33 14h2M27 15h1M33 15h2M27 16h1M33 16h2M7 17h2M21 17h1M27 17h1M33 17h2M6 18h4M28 18h7M6 19h1M9 19h2M14 19h1M29 19h6M6 20h1M9 20h2M13 20h4M32 20h3M6 21h1M9 21h2M13 21h4M6 22h5M12 22h2M16 22h2M7 23h3M12 23h2M16 23h2M12 24h2M16 24h2M12 25h5M13 26h3M14 27h1" />
<path stroke="#0c920c" d="M23 10h1M23 11h1M21 12h3M23 17h1M23 18h1M21 19h3" />
<path stroke="#ff0000" d="M29 12h3M29 13h1M31 13h1M29 14h1M31 14h1M29 15h1M31 15h1M29 16h3M4 27h1M4 28h2M29 28h2M4 29h3M28 29h3M4 30h5M27 30h1M30 30h1M5 31h2M8 31h3M27 31h1M29 31h1M5 32h2M10 32h4M26 32h1M29 32h1M6 33h3M11 33h7M21 33h5M28 33h1M7 34h3M13 34h11M27 34h2M9 35h3M16 35h5M25 35h2M11 36h4M22 36h4M12 37h12M15 38h5" />
<path stroke="#ffff00" d="M4 24h2M4 25h6M6 26h4M7 27h3M8 28h3M9 29h2M4 34h1M4 35h2M4 36h4M4 37h5M4 38h5M4 39h4M14 39h1M4 40h3M13 40h9M4 41h2M12 41h10M4 42h1M11 42h12M10 43h13" />
<path stroke="#0000ff" d="M10 26h1M10 27h2M11 28h1M11 29h3M12 30h3M14 31h2M9 37h1M9 38h3M8 39h6M7 40h6M6 41h6M5 42h6M4 43h6" />
<path stroke="#c0c0c0" d="M40 29h1M40 30h1M37 31h4M37 32h4M40 33h1M40 34h1M40 35h1M40 36h1M40 37h1M40 38h1M40 39h1M40 40h1M40 41h1M24 42h17" />
</svg>